<?xml version="1.0" standalone="no"?>
<!DOCTYPE svg PUBLIC "-//W3C//DTD SVG 20010904//EN"
 "http://www.w3.org/TR/2001/REC-SVG-20010904/DTD/svg10.dtd">
<svg version="1.0" xmlns="http://www.w3.org/2000/svg"
 width="382.000000pt" height="382.000000pt" viewBox="0 0 382.000000 382.000000"
 preserveAspectRatio="xMidYMid meet">
<metadata>
Created by potrace 1.14, written by Peter Selinger 2001-2017
</metadata>
<g transform="translate(0.000000,382.000000) scale(0.100000,-0.100000)"
fill="#000000" stroke="none">
<path d="M1267 3466 c-10 -14 -33 -41 -52 -60 -19 -20 -35 -38 -35 -40 0 -5
-48 -61 -102 -117 -15 -16 -25 -29 -23 -29 3 0 -3 -8 -12 -18 -19 -19 -98
-109 -133 -152 -35 -41 -123 -141 -152 -172 -16 -16 -28 -31 -28 -34 0 -13
-38 -53 -44 -47 -3 3 -6 2 -6 -4 0 -6 -19 -32 -42 -58 -78 -87 -72 -42 -74
-541 -1 -248 -4 -456 -8 -463 -4 -6 -4 -11 1 -11 4 0 8 -20 8 -45 0 -25 -3
-45 -7 -45 -4 0 -4 -10 1 -22 4 -13 5 -35 0 -50 -4 -16 -5 -28 -1 -28 4 0 7
-13 7 -30 0 -16 -2 -30 -5 -30 -3 0 -5 -27 -5 -60 0 -33 4 -60 8 -60 5 0 5 -6
0 -12 -11 -19 -10 -62 2 -71 7 -5 7 -9 0 -15 -13 -9 -15 -142 -2 -142 4 0 5
-6 0 -13 -10 -16 -11 -48 -2 -68 5 -9 5 -20 1 -24 -11 -11 -9 -329 3 -340 5
-5 19 -11 30 -12 21 -1 82 -10 125 -18 43 -8 74 -14 115 -19 45 -7 80 -14 80
-16 0 -1 16 -3 35 -6 19 -2 49 -6 65 -9 17 -3 46 -8 65 -11 19 -3 55 -9 80
-15 25 -5 61 -12 80 -14 19 -2 49 -7 65 -10 17 -4 41 -8 55 -10 14 -2 25 -4
25 -5 0 -1 22 -5 90 -15 11 -1 20 -3 20 -4 0 -1 16 -4 35 -7 19 -2 60 -9 90
-15 30 -6 66 -12 80 -14 26 -3 77 -13 120 -21 14 -3 41 -7 60 -10 54 -6 69
-10 76 -16 3 -4 17 -4 30 -2 13 2 24 1 24 -3 0 -5 10 -9 23 -9 20 -1 62 -8
127 -20 47 -8 85 -15 115 -18 17 -2 30 -5 30 -6 0 -1 16 -4 35 -6 53 -7 75
-11 75 -14 0 -1 11 -3 25 -5 14 -1 42 -5 64 -9 34 -6 42 -3 67 24 16 16 29 35
29 40 0 6 5 8 10 5 6 -3 10 -2 10 3 0 5 9 20 21 33 11 13 39 46 62 73 23 27
54 62 70 78 15 16 27 30 27 33 0 3 60 73 93 107 9 10 17 20 17 23 0 3 12 18
28 34 24 25 67 74 131 151 27 32 98 113 145 165 19 22 36 43 36 47 0 4 7 14
16 22 9 9 11 16 4 16 -6 0 -9 4 -5 9 3 6 6 309 8 675 1 436 5 666 12 666 7 0
7 3 0 8 -12 9 -15 72 -3 72 5 0 4 10 -3 21 -8 16 -8 20 1 14 9 -5 9 -1 -1 16
-15 28 -15 29 3 40 7 5 8 9 3 9 -11 0 -12 91 0 109 3 6 1 11 -5 11 -8 0 -8 6
0 20 6 11 7 20 3 20 -4 0 -8 11 -8 25 0 14 2 25 5 25 5 0 5 51 0 58 -3 3 -3
51 0 55 6 8 4 90 -2 94 -5 2 -6 9 -3 14 4 5 0 9 -7 10 -7 0 -22 3 -33 5 -11 3
-31 7 -45 9 -14 1 -25 4 -25 5 0 1 -13 3 -30 5 -16 1 -30 4 -30 5 0 1 -13 4
-30 5 -16 2 -30 4 -30 5 0 1 -16 3 -35 5 -19 2 -35 4 -35 5 0 2 -51 10 -87 13
-16 1 -28 4 -28 7 0 3 -8 6 -17 7 -39 4 -99 12 -123 17 -14 4 -42 8 -64 11
-21 3 -41 7 -45 9 -4 3 -29 7 -56 11 -75 10 -90 12 -90 14 0 1 -11 4 -25 6
-14 2 -43 7 -65 10 -22 4 -50 7 -62 8 -13 0 -23 4 -23 7 0 3 -10 7 -22 7 -29
2 -92 11 -95 13 -2 2 -12 4 -23 5 -11 1 -21 4 -22 5 -2 1 -16 3 -33 5 -16 1
-30 3 -30 5 0 1 -11 3 -25 5 -14 1 -38 5 -55 9 -16 3 -46 8 -65 11 -19 3 -46
7 -60 10 -64 13 -97 18 -120 21 -14 1 -25 3 -25 4 0 1 -11 4 -25 5 -25 4 -88
14 -125 20 -11 2 -30 6 -42 8 -11 3 -43 9 -70 13 -26 3 -57 8 -68 11 -83 17
-101 15 -118 -11z m1068 -933 c-3 -8 -5 -19 -5 -24 0 -5 -7 -9 -16 -9 -8 0
-13 -4 -9 -9 3 -5 -5 -17 -17 -25 -12 -9 -17 -16 -11 -16 12 0 12 -24 0 -36
-4 -4 -2 -13 4 -20 7 -8 7 -14 -1 -19 -8 -5 -8 -11 0 -20 7 -8 8 -20 4 -27
-11 -17 -11 -49 -1 -70 5 -12 3 -18 -5 -18 -9 0 -9 -3 2 -10 13 -9 13 -10 0
-11 -11 0 -11 -2 -2 -6 10 -4 10 -8 0 -21 -11 -13 -11 -14 2 -7 13 8 13 7 1
-8 -10 -13 -10 -17 -1 -17 9 0 9 -4 2 -13 -7 -8 -7 -18 -2 -27 5 -9 5 -19 -2
-27 -7 -9 -7 -13 1 -13 7 0 9 -5 5 -12 -4 -6 -3 -8 4 -4 6 3 13 2 17 -3 3 -5
14 -8 25 -6 11 2 20 -2 20 -8 0 -7 4 -6 10 3 6 9 10 10 10 3 0 -6 9 -10 20 -8
11 2 20 1 20 -3 0 -4 12 -8 28 -8 63 -3 92 -9 92 -19 0 -5 5 -3 10 5 6 10 10
11 10 3 0 -8 16 -13 43 -14 23 0 36 -3 28 -6 -11 -5 -11 -7 0 -14 11 -7 10 -9
-4 -9 -10 0 -15 -4 -12 -10 3 -5 1 -10 -5 -10 -6 0 -8 -4 -5 -10 3 -5 -1 -10
-10 -10 -10 0 -13 -5 -9 -12 5 -8 2 -9 -9 -5 -10 3 -17 2 -17 -2 0 -5 -11 -8
-25 -7 -14 0 -25 3 -25 6 0 5 -26 9 -102 13 -14 1 -24 6 -20 11 3 5 -2 7 -10
3 -9 -3 -27 1 -42 8 -15 8 -24 10 -21 5 3 -5 -4 -8 -15 -7 -11 1 -20 5 -20 10
0 4 -4 5 -10 2 -5 -3 -10 0 -10 7 0 9 -3 9 -10 -2 -9 -13 -10 -13 -10 0 0 13
-1 13 -10 0 -5 -8 -10 -10 -10 -3 0 6 -8 10 -17 9 -24 -4 -44 16 -32 31 7 7 6
14 -2 18 -8 6 -7 10 2 16 10 6 11 9 2 9 -7 0 -13 5 -13 11 0 5 4 8 8 5 5 -3 9
1 9 9 0 8 -5 15 -10 15 -5 0 -3 8 4 17 12 14 12 15 1 9 -11 -7 -12 -4 -3 13 9
16 9 21 -1 21 -10 0 -10 2 1 9 7 5 9 11 4 14 -11 7 -11 37 1 55 4 7 2 12 -6
12 -8 0 -9 3 -3 8 13 9 18 32 7 32 -5 0 -9 7 -9 15 0 8 4 15 9 15 11 0 6 23
-7 32 -6 5 -5 8 3 8 7 0 11 4 7 9 -3 5 -1 12 5 16 6 4 8 11 4 16 -3 6 3 17 15
25 12 9 18 20 15 26 -4 7 -2 8 4 4 7 -4 17 3 23 18 7 14 16 23 20 20 5 -3 9 2
9 10 0 9 8 16 17 16 9 0 13 3 10 7 -8 8 21 30 40 30 8 0 12 -6 8 -14z"/>
</g>
</svg>
